<?xml version="1.0" standalone="no"?>
<!DOCTYPE svg PUBLIC "-//W3C//DTD SVG 20010904//EN"
 "http://www.w3.org/TR/2001/REC-SVG-20010904/DTD/svg10.dtd">
<svg version="1.0" xmlns="http://www.w3.org/2000/svg"
 width="413.000000pt" height="531.000000pt" viewBox="0 0 413.000000 531.000000"
 preserveAspectRatio="xMidYMid meet">

<g transform="translate(0.000000,531.000000) scale(0.100000,-0.100000)"
fill="#000000" stroke="none">
<path d="M2106 5083 c-5 -6 -55 -11 -128 -14 -10 0 -20 -4 -23 -10 -4 -5 -31
-9 -61 -9 -31 0 -54 -4 -54 -11 0 -5 -4 -8 -8 -5 -4 3 -24 -10 -43 -27 -19
-18 -41 -32 -49 -31 -8 0 -21 -5 -29 -10 -11 -8 -13 -8 -7 1 5 9 2 11 -8 7 -9
-3 -13 -10 -10 -15 3 -5 -5 -9 -17 -9 -12 0 -32 -12 -44 -26 -15 -17 -33 -26
-51 -26 -29 0 -54 -18 -54 -38 0 -6 -8 -11 -17 -10 -26 3 -63 -11 -63 -22 0
-6 -8 -7 -17 -4 -10 4 -14 4 -11 0 8 -8 -14 -34 -24 -27 -5 2 -8 -5 -8 -16 0
-14 -6 -21 -18 -21 -10 0 -26 -14 -36 -31 -10 -18 -27 -40 -38 -51 -10 -10
-23 -30 -28 -44 -6 -14 -14 -22 -20 -19 -5 3 -10 2 -10 -3 0 -5 -18 -32 -40
-60 -22 -27 -40 -57 -40 -65 0 -8 -6 -17 -14 -20 -15 -6 -34 -74 -41 -151 -5
-51 21 -170 35 -161 13 8 19 -16 59 -250 6 -33 15 -76 21 -95 5 -19 10 -71 10
-115 0 -44 5 -98 10 -119 8 -35 6 -42 -13 -59 l-22 -19 24 7 24 7 -22 -23
c-42 -46 -23 -150 65 -348 12 -28 13 -36 2 -43 -8 -5 -4 -7 12 -4 14 3 29 5
33 5 4 1 -4 13 -18 29 -40 43 -79 164 -60 184 8 8 55 -3 55 -12 0 -5 -7 -16
-15 -24 -20 -20 -10 -82 16 -104 10 -9 16 -19 13 -24 -3 -4 5 -8 18 -8 23 0
48 -16 48 -31 0 -4 -9 -11 -20 -14 -29 -9 -25 -28 5 -21 20 5 25 3 25 -13 0
-11 5 -23 11 -26 7 -5 9 5 4 31 -18 112 -24 238 -15 316 6 45 10 84 10 86 0 2
6 0 13 -4 8 -5 8 -2 -2 9 -9 11 -10 17 -2 17 6 0 11 10 11 23 0 18 -2 19 -10
7 -8 -13 -10 -12 -10 3 0 9 4 17 9 17 5 0 9 6 8 13 -2 51 4 78 16 71 9 -6 9
-4 0 7 -18 18 -16 27 4 25 14 -1 17 6 15 33 -3 24 0 31 9 26 8 -5 10 -4 5 3
-7 11 11 51 28 64 5 3 16 4 24 0 10 -3 13 -1 8 7 -4 6 -16 9 -27 6 -24 -8 -24
0 1 27 14 15 17 26 10 38 -10 18 18 50 44 50 8 0 18 9 21 21 6 17 13 20 37 17
24 -4 29 -2 25 13 -3 12 0 16 9 12 8 -3 14 1 14 10 0 19 30 30 105 38 13 1 53
-8 64 -16 5 -3 17 2 25 11 9 8 16 11 16 6 0 -5 21 -10 46 -11 37 -1 45 2 41
13 -4 10 -1 13 8 9 8 -3 12 -9 9 -14 -3 -5 1 -9 9 -9 8 0 18 12 21 26 6 22 9
24 22 13 8 -7 14 -8 13 -3 -4 21 2 26 16 14 11 -9 19 -9 28 -2 7 6 23 9 34 6
12 -4 36 1 54 10 34 17 109 22 109 8 0 -5 25 -7 56 -4 34 3 55 1 51 -5 -3 -5
5 -10 18 -11 26 -2 65 -30 65 -47 0 -5 5 -17 10 -25 9 -13 11 -13 19 0 6 8 13
11 17 7 4 -4 2 -13 -4 -19 -15 -15 -16 -32 -2 -23 6 4 17 2 24 -4 7 -6 21 -9
30 -5 12 5 16 1 14 -17 -2 -13 -7 -27 -13 -31 -7 -5 -6 -14 3 -28 6 -11 17
-29 24 -40 15 -23 5 -35 -19 -25 -10 5 -27 7 -38 6 -23 -3 -46 -21 -26 -21 7
0 9 -4 6 -10 -3 -5 -3 -16 2 -22 4 -7 8 -23 8 -36 1 -17 -3 -21 -17 -16 -10 3
-18 0 -18 -6 0 -7 -7 -10 -15 -6 -8 3 -15 3 -15 1 0 -2 42 -24 93 -49 91 -43
117 -68 117 -112 0 -8 4 -22 9 -32 42 -76 80 -301 47 -273 -11 9 -13 6 -11
-14 4 -33 -5 -66 -16 -59 -5 3 -6 -2 -3 -11 4 -8 2 -21 -3 -28 -6 -6 -18 -33
-28 -59 -15 -40 -16 -50 -4 -64 11 -14 11 -18 -3 -28 -12 -9 -13 -17 -7 -29 7
-11 6 -23 0 -34 -9 -16 -10 -15 -11 6 0 42 -14 13 -20 -44 -3 -30 -2 -55 2
-55 4 0 8 -4 8 -10 0 -5 -10 -10 -22 -10 -18 0 -20 -2 -9 -9 12 -8 11 -15 -4
-48 -10 -21 -20 -32 -23 -25 -2 8 1 19 7 25 14 14 14 27 1 27 -5 0 -10 -6 -10
-13 0 -19 -41 -53 -73 -61 -15 -3 -27 -13 -27 -22 0 -23 -32 -74 -47 -74 -7 0
-13 -4 -13 -9 0 -5 -13 -23 -29 -40 -16 -17 -26 -31 -23 -31 3 0 -4 -9 -16
-20 -25 -24 -36 -26 -28 -4 3 8 2 12 -4 9 -6 -3 -10 -14 -10 -23 0 -10 -17
-24 -43 -35 -23 -10 -50 -23 -59 -28 -26 -13 -51 -11 -42 4 5 7 1 7 -10 -2
-18 -15 -183 -24 -191 -11 -2 4 -19 6 -37 5 -18 -1 -36 3 -40 9 -4 6 -11 11
-15 12 -27 2 -112 52 -131 77 -14 19 -38 24 -26 6 4 -7 1 -10 -7 -7 -8 3 -13
11 -11 17 3 15 -15 14 -22 -1 -3 -7 -3 -3 0 10 4 17 1 22 -15 22 -12 0 -21 3
-21 8 0 4 -23 32 -50 62 -27 30 -55 62 -62 70 -11 12 -14 0 -16 -68 l-3 -83
-55 -72 c-30 -40 -73 -100 -96 -135 -40 -59 -48 -65 -147 -114 -58 -28 -122
-61 -141 -73 -19 -12 -82 -45 -140 -74 -58 -29 -123 -61 -145 -73 -122 -62
-171 -88 -180 -96 -5 -4 -25 -14 -43 -21 -25 -11 -30 -16 -20 -23 10 -7 9 -8
-4 -4 -10 3 -55 -12 -100 -33 -46 -21 -100 -46 -121 -55 -21 -8 -36 -20 -32
-26 3 -5 0 -7 -8 -5 -7 3 -30 -6 -51 -20 -20 -14 -40 -25 -44 -25 -4 0 -24
-16 -46 -34 -25 -22 -36 -38 -31 -47 5 -7 4 -10 -2 -6 -6 4 -31 -16 -57 -43
l-46 -49 0 -124 c0 -75 4 -127 11 -134 8 -8 8 -13 0 -17 -16 -10 -14 -69 1
-60 10 6 10 4 1 -7 -19 -19 -19 -555 0 -563 10 -5 10 -7 0 -12 -10 -4 -13 -69
-13 -272 0 -153 4 -261 9 -253 6 9 11 10 15 2 4 -6 0 -14 -8 -17 -9 -3 -16
-17 -16 -30 l0 -24 2065 0 2065 0 0 482 c0 378 -3 495 -14 542 -8 34 -20 88
-26 121 -7 33 -30 110 -52 170 -21 61 -41 119 -43 130 -2 11 -9 34 -17 50 -15
34 -115 200 -134 224 -60 71 -115 127 -151 151 -48 33 -173 90 -196 90 -9 0
-17 4 -19 8 -1 4 -34 20 -73 34 -38 14 -115 42 -170 63 -55 20 -177 63 -272
94 -213 72 -234 84 -267 154 -14 29 -48 80 -76 111 -45 51 -50 61 -45 94 2 20
7 61 10 91 4 35 22 85 49 140 24 47 56 118 71 156 16 39 35 78 43 88 10 11 11
17 3 17 -7 0 -10 10 -7 27 5 27 26 57 26 36 0 -6 20 -14 45 -17 25 -4 51 -14
59 -22 21 -21 26 -17 20 14 -3 16 1 53 10 82 9 29 14 56 11 58 -3 3 -5 -1 -5
-8 0 -7 -2 -11 -5 -8 -8 8 6 39 15 33 4 -3 11 2 14 11 4 10 2 13 -6 8 -8 -5
-9 -2 -5 10 4 10 7 20 7 22 0 3 5 2 12 -2 7 -4 8 -3 4 5 -4 6 -2 19 5 28 8 9
14 21 15 27 0 6 2 17 2 24 1 7 6 11 11 7 6 -3 7 9 4 30 -3 20 -1 41 6 48 6 8
8 17 4 20 -3 4 -8 19 -9 34 -3 30 -36 63 -61 63 -11 0 -13 4 -6 13 5 6 15 39
23 71 9 43 20 66 38 80 15 12 29 20 32 19 3 -1 7 8 7 19 2 15 -1 18 -9 10 -8
-8 -15 -6 -26 4 -13 14 -13 22 4 76 12 40 24 63 36 66 14 3 17 12 14 43 -2 21
0 39 6 39 5 0 8 14 6 32 -2 21 2 33 12 36 13 5 13 3 1 -11 -9 -11 -10 -17 -2
-17 6 0 12 5 12 10 1 6 3 15 4 20 1 6 3 15 4 21 0 5 7 7 14 3 6 -4 9 -3 4 1
-4 5 0 19 8 32 9 13 12 23 9 23 -4 0 1 9 11 20 14 15 16 28 10 57 -4 21 -7 57
-6 80 1 23 -3 44 -9 48 -5 3 -10 24 -10 46 0 21 -4 47 -9 57 -15 29 -50 115
-57 141 -5 18 -8 20 -15 10 -7 -11 -9 -9 -10 6 -1 11 -1 23 -1 26 1 4 -8 15
-18 24 -11 10 -20 26 -20 37 0 10 -4 18 -10 18 -5 0 -10 7 -10 16 0 8 -13 29
-30 47 -16 18 -30 35 -30 39 0 16 -86 96 -110 103 -14 4 -35 16 -48 26 -13 10
-39 23 -58 29 -20 7 -33 15 -30 18 3 3 -12 16 -35 30 -40 24 -68 25 -128 6
-17 -5 -22 -4 -17 5 4 6 12 8 18 5 6 -4 8 -2 4 4 -4 7 -17 8 -36 2 -19 -5 -28
-5 -25 1 6 9 -8 13 -34 10 -7 -2 -11 1 -8 6 3 4 -23 7 -56 6 -70 -2 -185 15
-193 28 -6 11 -28 12 -38 2z m-69 -19 c-3 -3 -12 -4 -19 -1 -8 3 -5 6 6 6 11
1 17 -2 13 -5z m1083 -755 c0 -6 -4 -7 -10 -4 -5 3 -10 11 -10 16 0 6 5 7 10
4 6 -3 10 -11 10 -16z m-808 -181 c-17 -17 -15 -33 3 -18 13 11 14 10 9 -4 -4
-10 -13 -15 -21 -12 -8 3 -17 6 -20 6 -4 0 2 9 12 20 10 11 21 20 24 20 3 0 0
-5 -7 -12z m73 -28 c3 -5 1 -10 -4 -10 -6 0 -11 5 -11 10 0 6 2 10 4 10 3 0 8
-4 11 -10z m-525 -54 c0 -3 -4 -8 -10 -11 -5 -3 -10 -1 -10 4 0 6 5 11 10 11
6 0 10 -2 10 -4z m-30 -16 c0 -5 -7 -7 -15 -4 -8 4 -15 8 -15 10 0 2 7 4 15 4
8 0 15 -4 15 -10z m-553 -560 c2 -11 -2 -20 -8 -20 -7 0 -7 -6 2 -17 11 -13 8
-13 -12 2 -27 20 -29 41 -4 31 9 -3 12 2 10 16 -3 11 -1 18 2 14 4 -4 8 -15
10 -26z m1617 -35 c-4 -16 -2 -25 6 -25 7 0 10 -6 7 -14 -3 -7 -1 -33 4 -56 8
-35 6 -55 -11 -105 -21 -64 -44 -104 -54 -94 -3 3 3 23 14 44 22 43 26 80 10
90 -6 4 -7 11 -4 17 4 7 2 8 -5 4 -9 -6 -9 -12 1 -24 7 -10 8 -14 3 -9 -4 4
-19 -3 -32 -15 -24 -22 -24 -22 3 25 14 27 32 46 38 44 8 -3 11 13 8 55 -3 58
1 88 13 88 3 0 3 -11 -1 -25z m46 5 c0 -5 -2 -10 -4 -10 -3 0 -8 5 -11 10 -3
6 -1 10 4 10 6 0 11 -4 11 -10z m-1697 -15 c4 -8 2 -17 -3 -20 -6 -4 -10 3
-10 14 0 25 6 27 13 6z m62 -45 c3 -6 1 -10 -4 -10 -6 0 -10 -3 -10 -7 5 -30
-3 -40 -26 -35 -14 2 -25 10 -25 17 0 8 -3 21 -7 31 -4 12 -3 15 5 10 7 -4 12
-15 12 -26 0 -14 5 -17 23 -12 18 5 19 7 5 10 -10 2 -18 7 -18 12 0 5 8 7 18
4 16 -5 16 -5 0 6 -25 16 -23 34 1 20 11 -5 23 -15 26 -20z m1634 -12 l-2 -43
-6 35 c-7 33 -5 50 5 50 2 0 3 -19 3 -42z m-1619 -108 c0 -5 -5 -10 -11 -10
-5 0 -7 5 -4 10 3 6 8 10 11 10 2 0 4 -4 4 -10z m48 -35 c-3 -3 -9 2 -12 12
-6 14 -5 15 5 6 7 -7 10 -15 7 -18z m1462 -94 c0 -6 -5 -13 -10 -16 -6 -4 -8
-11 -5 -16 8 -11 -6 -11 -24 0 -12 8 -12 12 -2 25 15 17 41 22 41 7z m-183
-273 c-3 -8 -6 -5 -6 6 -1 11 2 17 5 13 3 -3 4 -12 1 -19z m-121 -193 c-16
-17 -36 -20 -36 -6 0 10 17 19 38 20 10 1 10 -3 -2 -14z m-939 -95 c7 0 15 -9
18 -20 4 -11 37 -51 73 -89 37 -37 78 -82 92 -99 31 -40 61 -45 35 -6 -21 32
-13 41 21 25 14 -6 30 -9 35 -6 5 4 9 2 9 -4 0 -5 -6 -12 -12 -14 -8 -3 -6 -6
5 -6 9 -1 17 4 17 11 0 6 7 3 16 -8 8 -10 13 -13 9 -6 -3 6 -1 12 4 12 6 0 11
-5 11 -11 0 -6 7 -8 16 -5 11 4 15 2 11 -6 -3 -9 7 -13 34 -12 22 1 39 -2 39
-7 0 -6 8 -6 19 0 10 6 34 8 54 4 20 -3 44 -2 54 2 10 5 21 8 25 7 4 -1 18 2
32 8 22 8 26 6 35 -18 5 -15 10 -21 10 -14 1 6 6 12 12 12 7 0 8 -7 4 -17 -15
-39 -15 -55 1 -49 9 3 22 6 29 6 12 0 75 96 75 114 0 3 -7 6 -15 6 -8 0 -15 2
-15 5 0 16 37 58 69 77 20 12 38 25 41 28 9 11 40 20 40 11 0 -5 -9 -20 -20
-34 -20 -25 -20 -25 1 -30 17 -4 19 -10 13 -29 -12 -38 -10 -53 6 -50 12 3 12
1 3 -9 -8 -8 -9 -17 -3 -24 9 -11 3 -55 -9 -55 -3 0 -8 -28 -9 -62 -2 -34 -6
-67 -10 -73 -3 -5 -7 -38 -8 -73 -1 -46 2 -65 12 -69 8 -3 11 -9 8 -14 -3 -5
1 -12 9 -15 8 -3 17 -23 21 -45 4 -25 12 -39 21 -39 8 0 14 5 12 11 -3 13 29
36 39 27 10 -11 12 -71 2 -90 -5 -10 -4 -19 2 -23 7 -4 7 -12 0 -25 -6 -11 -6
-21 -1 -24 10 -6 7 -60 -4 -87 -3 -10 -2 -20 4 -24 7 -3 8 0 5 9 -3 9 5 21 20
31 14 10 26 24 26 33 0 8 3 12 6 9 10 -10 -17 -67 -29 -60 -6 3 -7 1 -3 -6 11
-17 -95 -192 -158 -261 -28 -31 -69 -82 -91 -114 -22 -31 -61 -87 -87 -123
-26 -37 -44 -71 -41 -76 3 -6 1 -7 -5 -3 -12 7 -72 -60 -109 -124 -14 -25 -27
-46 -28 -48 -2 -2 -14 7 -27 20 -14 13 -33 30 -44 39 -27 22 -187 198 -198
218 -5 9 -37 59 -72 111 -34 52 -82 128 -106 168 -42 69 -44 76 -35 112 8 28
7 46 -4 71 -7 19 -13 37 -12 41 2 4 -6 26 -17 51 -11 24 -21 68 -24 98 -5 54
-21 169 -32 223 -4 18 -2 26 4 22 7 -4 8 4 2 26 -6 17 -8 50 -5 72 12 107 14
146 6 146 -10 0 -9 56 2 66 4 4 6 19 6 33 -1 25 -2 25 -9 -4 -7 -27 -8 -25 -7
15 0 25 5 48 10 52 12 8 16 98 4 98 -4 0 -5 5 -2 11 5 7 15 3 29 -10 12 -12
27 -21 33 -21z m-297 -490 c0 -5 -4 -10 -10 -10 -5 0 -10 5 -10 10 0 6 5 10
10 10 6 0 10 -4 10 -10z m-180 -20 c0 -5 -5 -10 -11 -10 -5 0 -7 5 -4 10 3 6
8 10 11 10 2 0 4 -4 4 -10z m-45 -30 c-3 -5 -12 -10 -18 -10 -7 0 -6 4 3 10
19 12 23 12 15 0z m65 -7 c0 -5 -13 -17 -28 -27 l-27 -19 24 26 c26 28 31 32
31 20z m140 -3 c0 -5 -5 -10 -11 -10 -5 0 -7 5 -4 10 3 6 8 10 11 10 2 0 4 -4
4 -10z m1795 -10 c3 -5 1 -10 -4 -10 -6 0 -11 5 -11 10 0 6 2 10 4 10 3 0 8
-4 11 -10z m-2046 -17 c-18 -25 -41 -43 -53 -43 -5 0 6 14 24 30 38 34 49 39
29 13z m-119 3 c0 -3 -4 -8 -10 -11 -5 -3 -10 -1 -10 4 0 6 5 11 10 11 6 0 10
-2 10 -4z m2240 -26 c0 -5 -4 -10 -10 -10 -5 0 -10 5 -10 10 0 6 5 10 10 10 6
0 10 -4 10 -10z m-2080 -3 c0 -2 -10 -12 -22 -23 l-23 -19 19 23 c18 21 26 27
26 19z m-315 -17 c-3 -5 -12 -10 -18 -10 -7 0 -6 4 3 10 19 12 23 12 15 0z
m209 -31 c-3 -5 -10 -7 -15 -3 -5 3 -7 10 -3 15 3 5 10 7 15 3 5 -3 7 -10 3
-15z m2491 11 c3 -5 1 -10 -4 -10 -6 0 -11 5 -11 10 0 6 2 10 4 10 3 0 8 -4
11 -10z m-698 -22 c-3 -8 -6 -5 -6 6 -1 11 2 17 5 13 3 -3 4 -12 1 -19z
m-1952 2 c-3 -5 -12 -10 -18 -10 -7 0 -6 4 3 10 19 12 23 12 15 0z m2475 6 c0
-11 -19 -15 -25 -6 -3 5 1 10 9 10 9 0 16 -2 16 -4z m245 -24 c-3 -3 -11 0
-18 7 -9 10 -8 11 6 5 10 -3 15 -9 12 -12z m-2835 -27 c0 -2 -10 -10 -22 -16
-21 -11 -22 -11 -9 4 13 16 31 23 31 12z m401 -18 c-13 -13 -26 -3 -16 12 3 6
11 8 17 5 6 -4 6 -10 -1 -17z m2144 13 c3 -5 -1 -10 -9 -10 -9 0 -16 5 -16 10
0 6 4 10 9 10 6 0 13 -4 16 -10z m162 -6 c-3 -3 -12 -4 -19 -1 -8 3 -5 6 6 6
11 1 17 -2 13 -5z m-2527 -14 c0 -5 -9 -14 -21 -20 -19 -11 -20 -10 -9 9 11
22 30 29 30 11z m2775 0 c3 -5 2 -10 -4 -10 -5 0 -13 5 -16 10 -3 6 -2 10 4
10 5 0 13 -4 16 -10z m-3028 -22 c-2 -7 -10 -13 -18 -13 -8 0 -21 -4 -29 -9
-8 -4 -4 2 9 13 26 23 45 27 38 9z m2743 -8 c0 -5 -4 -10 -10 -10 -5 0 -10 5
-10 10 0 6 5 10 10 10 6 0 10 -4 10 -10z m-579 -23 c-13 -13 -26 -3 -16 12 3
6 11 8 17 5 6 -4 6 -10 -1 -17z m-1866 4 c3 -6 -3 -15 -14 -20 -18 -10 -21 -3
-12 27 2 6 20 1 26 -7z m135 5 c0 -3 -4 -8 -10 -11 -5 -3 -10 -1 -10 4 0 6 5
11 10 11 6 0 10 -2 10 -4z m175 -5 c3 -5 1 -12 -5 -16 -5 -3 -10 1 -10 9 0 18
6 21 15 7z m2205 -1 c0 -5 -7 -10 -16 -10 -8 0 -12 5 -9 10 3 6 10 10 16 10 5
0 9 -4 9 -10z m160 -10 c0 -5 -4 -10 -9 -10 -6 0 -13 5 -16 10 -3 6 1 10 9 10
9 0 16 -4 16 -10z m-2830 -21 c0 -5 -7 -9 -15 -9 -15 0 -20 12 -9 23 8 8 24
-1 24 -14z m-260 -9 c0 -5 -7 -10 -16 -10 -9 0 -34 -14 -55 -31 -21 -17 -39
-26 -39 -20 0 6 13 17 28 25 16 8 34 22 41 30 15 18 41 21 41 6z m3060 -16 c0
-2 -7 -4 -15 -4 -8 0 -15 4 -15 10 0 5 7 7 15 4 8 -4 15 -8 15 -10z m-2290 -4
c0 -5 -5 -10 -11 -10 -5 0 -7 5 -4 10 3 6 8 10 11 10 2 0 4 -4 4 -10z m-580
-10 c-19 -13 -30 -13 -30 0 0 6 10 10 23 10 18 0 19 -2 7 -10z m520 0 c0 -5
-5 -10 -11 -10 -5 0 -7 5 -4 10 3 6 8 10 11 10 2 0 4 -4 4 -10z m2501 -17 l24
-27 -32 23 c-33 23 -40 31 -25 31 5 0 19 -12 33 -27z m-2911 7 c0 -5 -4 -10
-10 -10 -5 0 -10 5 -10 10 0 6 5 10 10 10 6 0 10 -4 10 -10z m1820 6 c0 -3 -4
-8 -10 -11 -5 -3 -10 -1 -10 4 0 6 5 11 10 11 6 0 10 -2 10 -4z m-1650 -10 c0
-3 -4 -8 -10 -11 -5 -3 -10 -1 -10 4 0 6 5 11 10 11 6 0 10 -2 10 -4z m2440
-40 c-4 -4 -6 -16 -3 -25 3 -13 2 -12 -7 2 -6 9 -8 27 -5 39 6 16 9 18 16 7 4
-8 4 -18 -1 -23z m-3045 -2 c-11 -8 -27 -20 -35 -27 -9 -6 -33 -25 -55 -41
-22 -16 -55 -43 -72 -59 -18 -17 -33 -26 -33 -20 0 6 25 30 56 53 31 24 64 49
73 57 46 40 77 61 81 56 3 -2 -4 -11 -15 -19z m365 11 c0 -8 -4 -15 -10 -15
-5 0 -10 7 -10 15 0 8 5 15 10 15 6 0 10 -7 10 -15z m2925 5 c3 -5 1 -10 -4
-10 -6 0 -11 5 -11 10 0 6 2 10 4 10 3 0 8 -4 11 -10z m-3085 -30 c-24 -16
-31 -11 -19 11 8 16 14 18 22 10 9 -9 8 -14 -3 -21z m2220 15 c0 -8 -4 -15 -9
-15 -13 0 -22 16 -14 24 11 11 23 6 23 -9z m980 -5 c6 -11 9 -20 7 -20 -2 0
-12 9 -22 20 -10 11 -13 20 -7 20 6 0 16 -9 22 -20z m-2730 -9 c0 -6 -4 -13
-10 -16 -5 -3 -10 1 -10 9 0 9 5 16 10 16 6 0 10 -4 10 -9z m2240 -1 c0 -5 -4
-10 -10 -10 -5 0 -10 5 -10 10 0 6 5 10 10 10 6 0 10 -4 10 -10z m-80 -10 c0
-5 -5 -10 -11 -10 -5 0 -7 5 -4 10 3 6 8 10 11 10 2 0 4 -4 4 -10z m535 -28
c-6 -7 -34 11 -29 19 3 5 11 3 19 -4 7 -6 12 -13 10 -15z m-3266 -4 c14 5 14
4 2 -11 -18 -23 -40 -21 -38 3 1 12 5 16 10 11 5 -5 17 -7 26 -3z m467 -15
c-10 -10 -19 5 -10 18 6 11 8 11 12 0 2 -7 1 -15 -2 -18z m244 23 c0 -3 -4 -8
-10 -11 -5 -3 -10 -1 -10 4 0 6 5 11 10 11 6 0 10 -2 10 -4z m60 -6 c0 -5 -5
-10 -11 -10 -5 0 -7 5 -4 10 3 6 8 10 11 10 2 0 4 -4 4 -10z m-430 -10 c0 -5
-8 -10 -17 -10 -15 0 -16 2 -3 10 19 12 20 12 20 0z m1980 -11 c0 -11 -4 -17
-10 -14 -5 3 -10 13 -10 21 0 8 5 14 10 14 6 0 10 -9 10 -21z m-2056 -10 c-3
-5 -10 -7 -15 -3 -5 3 -7 10 -3 15 3 5 10 7 15 3 5 -3 7 -10 3 -15z m3047 4
c13 -16 12 -17 -3 -4 -10 7 -18 15 -18 17 0 8 8 3 21 -13z m-251 -18 c0 -8 -7
-15 -15 -15 -16 0 -20 12 -8 23 11 12 23 8 23 -8z m-3420 2 c0 -2 -17 -19 -37
-38 l-38 -34 34 38 c33 34 41 42 41 34z m3498 -9 c-6 -18 -28 -21 -28 -4 0 9
7 16 16 16 9 0 14 -5 12 -12z m-3213 -8 c-3 -5 -13 -10 -21 -10 -8 0 -12 5 -9
10 3 6 13 10 21 10 8 0 12 -4 9 -10z m120 0 c-3 -5 -11 -10 -16 -10 -6 0 -7 5
-4 10 3 6 11 10 16 10 6 0 7 -4 4 -10z m626 -17 c-12 -20 -14 -14 -5 12 4 9 9
14 11 11 3 -2 0 -13 -6 -23z m2245 0 c-10 -10 -19 5 -10 18 6 11 8 11 12 0 2
-7 1 -15 -2 -18z m348 2 c-4 -8 -10 -15 -15 -15 -5 0 -9 7 -9 15 0 8 7 15 15
15 9 0 12 -6 9 -15z m-3294 -15 c0 -5 -5 -10 -11 -10 -5 0 -7 5 -4 10 3 6 8
10 11 10 2 0 4 -4 4 -10z m866 -17 c-10 -10 -19 5 -10 18 6 11 8 11 12 0 2 -7
1 -15 -2 -18z m1891 5 c-3 -8 -6 -5 -6 6 -1 11 2 17 5 13 3 -3 4 -12 1 -19z
m-2001 -15 c-10 -10 -19 5 -10 18 6 11 8 11 12 0 2 -7 1 -15 -2 -18z m-49 -9
c-9 -9 -28 6 -21 18 4 6 10 6 17 -1 6 -6 8 -13 4 -17z m1493 16 c0 -5 -5 -10
-11 -10 -5 0 -7 5 -4 10 3 6 8 10 11 10 2 0 4 -4 4 -10z m-2343 -20 c-14 -11
-29 -20 -34 -20 -10 1 39 39 51 40 5 0 -3 -9 -17 -20z m3213 10 c0 -5 -5 -10
-11 -10 -5 0 -7 5 -4 10 3 6 8 10 11 10 2 0 4 -4 4 -10z m80 -5 c0 -8 -7 -15
-15 -15 -16 0 -20 12 -8 23 11 12 23 8 23 -8z m275 -6 c-10 -15 -25 -10 -19 6
4 8 10 12 15 9 5 -3 7 -10 4 -15z m-3055 -4 c0 -8 -4 -15 -10 -15 -5 0 -10 7
-10 15 0 8 5 15 10 15 6 0 10 -7 10 -15z m140 5 c0 -5 -5 -10 -11 -10 -5 0 -7
5 -4 10 3 6 8 10 11 10 2 0 4 -4 4 -10z m2430 -9 c0 -6 -4 -13 -10 -16 -5 -3
-10 1 -10 9 0 9 5 16 10 16 6 0 10 -4 10 -9z m-2990 -22 c0 -5 -4 -9 -10 -9
-5 0 -10 7 -10 16 0 8 5 12 10 9 6 -3 10 -10 10 -16z m78 10 c-2 -6 -8 -10
-13 -10 -5 0 -11 4 -13 10 -2 6 4 11 13 11 9 0 15 -5 13 -11z m272 2 c0 -6 -4
-13 -10 -16 -5 -3 -10 1 -10 9 0 9 5 16 10 16 6 0 10 -4 10 -9z m2043 -16 c-7
-21 -13 -19 -13 6 0 11 4 18 10 14 5 -3 7 -12 3 -20z m937 15 c0 -5 -4 -10
-10 -10 -5 0 -10 5 -10 10 0 6 5 10 10 10 6 0 10 -4 10 -10z m-3606 -15 c-7
-16 -24 -21 -24 -6 0 8 7 13 27 20 1 1 0 -6 -3 -14z m486 5 c0 -5 -4 -10 -10
-10 -5 0 -10 5 -10 10 0 6 5 10 10 10 6 0 10 -4 10 -10z m710 -2 c0 -7 -5 -20
-10 -28 -8 -12 -10 -9 -10 13 0 15 5 27 10 27 6 0 10 -6 10 -12z m-1050 -2 c0
-3 -4 -8 -10 -11 -5 -3 -10 -1 -10 4 0 6 5 11 10 11 6 0 10 -2 10 -4z m2734
-11 c3 -8 1 -15 -4 -15 -6 0 -10 7 -10 15 0 8 2 15 4 15 2 0 6 -7 10 -15z
m256 11 c0 -3 -4 -8 -10 -11 -5 -3 -10 -1 -10 4 0 6 5 11 10 11 6 0 10 -2 10
-4z m665 -6 c3 -5 1 -10 -4 -10 -6 0 -11 5 -11 10 0 6 2 10 4 10 3 0 8 -4 11
-10z m-2775 -15 c0 -8 -4 -15 -10 -15 -5 0 -10 7 -10 15 0 8 5 15 10 15 6 0
10 -7 10 -15z m60 -6 c0 -5 -4 -9 -10 -9 -5 0 -10 7 -10 16 0 8 5 12 10 9 6
-3 10 -10 10 -16z m2631 -2 c-1 -12 -15 -9 -19 4 -3 6 1 10 8 8 6 -3 11 -8 11
-12z m-3571 -7 c0 -5 -7 -10 -16 -10 -8 0 -12 5 -9 10 3 6 10 10 16 10 5 0 9
-4 9 -10z m-200 -10 c0 -5 -2 -10 -4 -10 -3 0 -8 5 -11 10 -3 6 -1 10 4 10 6
0 11 -4 11 -10z m332 -5 c0 -5 -5 -11 -11 -13 -6 -2 -11 4 -11 13 0 9 5 15 11
13 6 -2 11 -8 11 -13z m418 0 c0 -8 -4 -15 -10 -15 -5 0 -10 7 -10 15 0 8 5
15 10 15 6 0 10 -7 10 -15z m3164 -1 c3 -8 2 -12 -4 -9 -6 3 -10 10 -10 16 0
14 7 11 14 -7z m-3224 -9 c0 -8 -7 -15 -15 -15 -9 0 -12 6 -9 15 4 8 10 15 15
15 5 0 9 -7 9 -15z m-140 -5 c0 -5 -4 -10 -10 -10 -5 0 -10 5 -10 10 0 6 5 10
10 10 6 0 10 -4 10 -10z m3290 -10 c0 -11 -4 -20 -10 -20 -5 0 -10 9 -10 20 0
11 5 20 10 20 6 0 10 -9 10 -20z m-1275 0 c3 -5 1 -10 -4 -10 -6 0 -11 5 -11
10 0 6 2 10 4 10 3 0 8 -4 11 -10z m-1175 -15 c0 -8 -2 -15 -4 -15 -2 0 -6 7
-10 15 -3 8 -1 15 4 15 6 0 10 -7 10 -15z m-1325 -5 c3 -5 1 -10 -4 -10 -6 0
-11 5 -11 10 0 6 2 10 4 10 3 0 8 -4 11 -10z m140 1 c3 -5 1 -12 -5 -16 -5 -3
-10 1 -10 9 0 18 6 21 15 7z m3101 -18 c-10 -10 -19 5 -10 18 6 11 8 11 12 0
2 -7 1 -15 -2 -18z m194 17 c0 -5 -4 -10 -10 -10 -5 0 -10 5 -10 10 0 6 5 10
10 10 6 0 10 -4 10 -10z m130 -16 c0 -8 -5 -12 -10 -9 -6 4 -8 11 -5 16 9 14
15 11 15 -7z m-3620 -22 c0 -13 -12 -22 -22 -16 -10 6 -1 24 13 24 5 0 9 -4 9
-8z m980 -2 c0 -5 -5 -10 -11 -10 -5 0 -7 5 -4 10 3 6 8 10 11 10 2 0 4 -4 4
-10z m-900 -16 c0 -8 -4 -12 -10 -9 -5 3 -10 10 -10 16 0 5 5 9 10 9 6 0 10
-7 10 -16z m995 6 c3 -5 1 -10 -4 -10 -6 0 -11 5 -11 10 0 6 2 10 4 10 3 0 8
-4 11 -10z m-735 -31 c0 -5 -7 -9 -15 -9 -15 0 -20 12 -9 23 8 8 24 -1 24 -14z
m70 11 c0 -5 -4 -10 -10 -10 -5 0 -10 5 -10 10 0 6 5 10 10 10 6 0 10 -4 10
-10z m-360 -10 c0 -5 -5 -10 -11 -10 -5 0 -7 5 -4 10 3 6 8 10 11 10 2 0 4 -4
4 -10z m2475 0 c-3 -5 -11 -10 -16 -10 -6 0 -7 5 -4 10 3 6 11 10 16 10 6 0 7
-4 4 -10z m-1775 -10 c0 -5 -4 -10 -10 -10 -5 0 -10 5 -10 10 0 6 5 10 10 10
6 0 10 -4 10 -10z m-70 -16 c0 -8 -4 -12 -10 -9 -5 3 -10 10 -10 16 0 5 5 9
10 9 6 0 10 -7 10 -16z m709 -27 c1 -5 -3 -5 -9 -2 -5 3 -10 16 -9 28 0 21 1
21 9 2 5 -11 9 -24 9 -28z m2381 27 c0 -8 -4 -12 -10 -9 -5 3 -10 10 -10 16 0
5 5 9 10 9 6 0 10 -7 10 -16z m-2075 -4 c3 -5 1 -10 -4 -10 -6 0 -11 5 -11 10
0 6 2 10 4 10 3 0 8 -4 11 -10z m-1481 -15 c-6 -16 -24 -21 -24 -7 0 11 11 22
21 22 5 0 6 -7 3 -15z m2296 -4 c0 -12 -20 -25 -27 -18 -7 7 6 27 18 27 5 0 9
-4 9 -9z m895 -1 c3 -5 1 -10 -4 -10 -6 0 -11 5 -11 10 0 6 2 10 4 10 3 0 8
-4 11 -10z m-3400 -10 c-3 -5 -11 -10 -16 -10 -6 0 -7 5 -4 10 3 6 11 10 16
10 6 0 7 -4 4 -10z m3295 1 c0 -6 -4 -13 -10 -16 -5 -3 -10 1 -10 9 0 9 5 16
10 16 6 0 10 -4 10 -9z m300 -12 c0 -5 -4 -9 -10 -9 -5 0 -10 7 -10 16 0 8 5
12 10 9 6 -3 10 -10 10 -16z m-2093 -15 c-9 -9 -28 6 -21 18 4 6 10 6 17 -1 6
-6 8 -13 4 -17z m-437 -5 c0 -5 -4 -9 -10 -9 -5 0 -10 7 -10 16 0 8 5 12 10 9
6 -3 10 -10 10 -16z m-80 -5 c0 -14 -3 -14 -15 -4 -8 7 -15 14 -15 16 0 2 7 4
15 4 8 0 15 -7 15 -16z m2097 -6 c-3 -8 -6 -5 -6 6 -1 11 2 17 5 13 3 -3 4
-12 1 -19z m73 12 c0 -5 -2 -10 -4 -10 -3 0 -8 5 -11 10 -3 6 -1 10 4 10 6 0
11 -4 11 -10z m-2732 -28 c2 -7 -3 -12 -12 -12 -9 0 -16 7 -16 16 0 17 22 14
28 -4z m137 8 c3 -5 1 -10 -4 -10 -6 0 -11 5 -11 10 0 6 2 10 4 10 3 0 8 -4
11 -10z m772 -22 c-3 -8 -6 -5 -6 6 -1 11 2 17 5 13 3 -3 4 -12 1 -19z m-987
-3 c0 -8 -4 -15 -10 -15 -5 0 -10 7 -10 15 0 8 5 15 10 15 6 0 10 -7 10 -15z
m405 -15 c-5 -8 -11 -8 -17 -2 -6 6 -7 16 -3 22 5 8 11 8 17 2 6 -6 7 -16 3
-22z m2705 15 c0 -8 -4 -15 -10 -15 -5 0 -10 7 -10 15 0 8 5 15 10 15 6 0 10
-7 10 -15z m244 0 c-4 -8 -8 -15 -10 -15 -2 0 -4 7 -4 15 0 8 4 15 10 15 5 0
7 -7 4 -15z m176 5 c0 -5 -4 -10 -10 -10 -5 0 -10 5 -10 10 0 6 5 10 10 10 6
0 10 -4 10 -10z m-3780 -10 c0 -5 -4 -10 -10 -10 -5 0 -10 5 -10 10 0 6 5 10
10 10 6 0 10 -4 10 -10z m575 1 c3 -5 1 -12 -5 -16 -5 -3 -10 1 -10 9 0 18 6
21 15 7z m835 -11 c0 -11 -2 -20 -4 -20 -2 0 -6 9 -9 20 -3 11 -1 20 4 20 5 0
9 -9 9 -20z m1790 11 c0 -6 -4 -13 -10 -16 -5 -3 -10 1 -10 9 0 9 5 16 10 16
6 0 10 -4 10 -9z m-1610 -16 c0 -8 -7 -15 -15 -15 -8 0 -15 7 -15 15 0 8 7 15
15 15 8 0 15 -7 15 -15z m-612 -6 c-2 -6 -8 -10 -13 -10 -5 0 -11 4 -13 10 -2
6 4 11 13 11 9 0 15 -5 13 -11z m2082 -5 c0 -8 -4 -12 -10 -9 -5 3 -10 10 -10
16 0 5 5 9 10 9 6 0 10 -7 10 -16z m-2950 -4 c0 -5 -7 -10 -15 -10 -8 0 -15 5
-15 10 0 6 7 10 15 10 8 0 15 -4 15 -10z m790 1 c0 -17 -18 -21 -24 -6 -3 9 0
15 9 15 8 0 15 -4 15 -9z m-430 -11 c0 -5 -7 -10 -15 -10 -8 0 -15 5 -15 10 0
6 7 10 15 10 8 0 15 -4 15 -10z m2200 0 c0 -5 -5 -10 -11 -10 -5 0 -7 5 -4 10
3 6 8 10 11 10 2 0 4 -4 4 -10z m70 0 c0 -5 -5 -10 -11 -10 -5 0 -7 5 -4 10 3
6 8 10 11 10 2 0 4 -4 4 -10z m-2413 -22 c-3 -8 -6 -5 -6 6 -1 11 2 17 5 13 3
-3 4 -12 1 -19z m447 6 c3 -8 2 -12 -4 -9 -6 3 -10 10 -10 16 0 14 7 11 14 -7z
m3016 7 c0 -6 -4 -13 -10 -16 -5 -3 -10 1 -10 9 0 9 5 16 10 16 6 0 10 -4 10
-9z m-3533 -33 c-16 -10 -21 -2 -13 19 6 15 9 15 16 3 6 -9 5 -17 -3 -22z
m318 12 c3 -5 1 -10 -4 -10 -6 0 -11 5 -11 10 0 6 2 10 4 10 3 0 8 -4 11 -10z
m79 -11 c-8 -14 -24 -10 -24 6 0 9 6 12 15 9 8 -4 12 -10 9 -15z m2926 11 c0
-5 -5 -10 -11 -10 -5 0 -7 5 -4 10 3 6 8 10 11 10 2 0 4 -4 4 -10z m90 -11 c0
-5 -4 -9 -10 -9 -5 0 -10 7 -10 16 0 8 5 12 10 9 6 -3 10 -10 10 -16z m-3750
-17 c0 -13 -12 -22 -22 -16 -10 6 -1 24 13 24 5 0 9 -4 9 -8z m200 -2 c0 -5
-7 -10 -15 -10 -8 0 -15 5 -15 10 0 6 7 10 15 10 8 0 15 -4 15 -10z m1350 -10
c0 -5 -4 -10 -10 -10 -5 0 -10 5 -10 10 0 6 5 10 10 10 6 0 10 -4 10 -10z
m-210 -15 c0 -8 -4 -15 -9 -15 -5 0 -11 7 -15 15 -3 9 0 15 9 15 8 0 15 -7 15
-15z m80 5 c0 -5 -4 -10 -10 -10 -5 0 -10 5 -10 10 0 6 5 10 10 10 6 0 10 -4
10 -10z m420 0 c0 -5 -2 -10 -4 -10 -3 0 -8 5 -11 10 -3 6 -1 10 4 10 6 0 11
-4 11 -10z m1510 0 c0 -5 -5 -10 -11 -10 -5 0 -7 5 -4 10 3 6 8 10 11 10 2 0
4 -4 4 -10z m-2150 -15 c0 -8 -4 -15 -10 -15 -5 0 -10 7 -10 15 0 8 5 15 10
15 6 0 10 -7 10 -15z m-130 -20 c0 -8 -4 -15 -9 -15 -13 0 -22 16 -14 24 11
11 23 6 23 -9z m2066 -12 c-10 -10 -19 5 -10 18 6 11 8 11 12 0 2 -7 1 -15 -2
-18z m-2146 2 c0 -8 -4 -15 -10 -15 -5 0 -10 7 -10 15 0 8 5 15 10 15 6 0 10
-7 10 -15z m2080 5 c0 -5 -4 -10 -10 -10 -5 0 -10 5 -10 10 0 6 5 10 10 10 6
0 10 -4 10 -10z m-2530 -15 c0 -8 -4 -15 -10 -15 -5 0 -10 7 -10 15 0 8 5 15
10 15 6 0 10 -7 10 -15z m1830 5 c0 -5 -4 -10 -10 -10 -5 0 -10 5 -10 10 0 6
5 10 10 10 6 0 10 -4 10 -10z m80 0 c0 -5 -4 -10 -10 -10 -5 0 -10 5 -10 10 0
6 5 10 10 10 6 0 10 -4 10 -10z m140 0 c0 -5 -4 -10 -10 -10 -5 0 -10 5 -10
10 0 6 5 10 10 10 6 0 10 -4 10 -10z m220 -5 c0 -8 -7 -15 -16 -15 -14 0 -14
3 -4 15 7 8 14 15 16 15 2 0 4 -7 4 -15z m140 6 c0 -6 -4 -13 -10 -16 -5 -3
-10 1 -10 9 0 9 5 16 10 16 6 0 10 -4 10 -9z m-220 -11 c0 -5 -4 -10 -10 -10
-5 0 -10 5 -10 10 0 6 5 10 10 10 6 0 10 -4 10 -10z m-2640 -9 c0 -5 -7 -11
-14 -14 -10 -4 -13 -1 -9 9 6 15 23 19 23 5z m320 -6 c0 -8 -4 -15 -10 -15 -5
0 -10 7 -10 15 0 8 5 15 10 15 6 0 10 -7 10 -15z m450 5 c0 -5 -4 -10 -10 -10
-5 0 -10 5 -10 10 0 6 5 10 10 10 6 0 10 -4 10 -10z m-518 -22 c-7 -7 -12 -8
-12 -2 0 14 12 26 19 19 2 -3 -1 -11 -7 -17z m388 1 c0 -5 -7 -9 -15 -9 -15 0
-20 12 -9 23 8 8 24 -1 24 -14z m-510 -24 c0 -8 -7 -15 -15 -15 -8 0 -15 7
-15 15 0 8 7 15 15 15 8 0 15 -7 15 -15z m1210 -20 c0 -8 -4 -15 -10 -15 -5 0
-10 7 -10 15 0 8 5 15 10 15 6 0 10 -7 10 -15z m141 2 c-1 -12 -15 -9 -19 4
-3 6 1 10 8 8 6 -3 11 -8 11 -12z m1769 -2 c0 -8 -4 -15 -10 -15 -5 0 -7 7 -4
15 4 8 8 15 10 15 2 0 4 -7 4 -15z m-1982 -13 c2 -7 -2 -10 -12 -6 -9 3 -16
11 -16 16 0 13 23 5 28 -10z m362 8 c0 -5 -5 -10 -11 -10 -5 0 -7 5 -4 10 3 6
8 10 11 10 2 0 4 -4 4 -10z m2050 6 c0 -3 -4 -8 -10 -11 -5 -3 -10 -1 -10 4 0
6 5 11 10 11 6 0 10 -2 10 -4z m-2560 -21 c0 -8 -4 -15 -10 -15 -5 0 -10 7
-10 15 0 8 5 15 10 15 6 0 10 -7 10 -15z m-1200 -15 c0 -5 -4 -10 -10 -10 -5
0 -10 5 -10 10 0 6 5 10 10 10 6 0 10 -4 10 -10z m1000 -16 c0 -8 -7 -14 -15
-14 -15 0 -21 21 -9 33 10 9 24 -2 24 -19z m78 14 c-6 -18 -28 -21 -28 -4 0 9
7 16 16 16 9 0 14 -5 12 -12z m2039 -10 c-3 -8 -6 -5 -6 6 -1 11 2 17 5 13 3
-3 4 -12 1 -19z m-196 -11 c-13 -13 -26 -3 -16 12 3 6 11 8 17 5 6 -4 6 -10
-1 -17z m131 1 c-7 -7 -12 -8 -12 -2 0 14 12 26 19 19 2 -3 -1 -11 -7 -17z
m-862 2 c0 -5 -4 -10 -10 -10 -5 0 -10 5 -10 10 0 6 5 10 10 10 6 0 10 -4 10
-10z m150 0 c0 -5 -4 -10 -10 -10 -5 0 -10 5 -10 10 0 6 5 10 10 10 6 0 10 -4
10 -10z m80 0 c0 -5 -7 -10 -16 -10 -8 0 -12 5 -9 10 3 6 10 10 16 10 5 0 9
-4 9 -10z m140 0 c0 -5 -4 -10 -10 -10 -5 0 -10 5 -10 10 0 6 5 10 10 10 6 0
10 -4 10 -10z m150 1 c0 -6 -4 -13 -10 -16 -5 -3 -10 1 -10 9 0 9 5 16 10 16
6 0 10 -4 10 -9z m75 -12 c-10 -15 -25 -10 -19 6 4 8 10 12 15 9 5 -3 7 -10 4
-15z m-2145 1 c0 -5 -4 -10 -10 -10 -5 0 -10 5 -10 10 0 6 5 10 10 10 6 0 10
-4 10 -10z m210 -6 c0 -8 -4 -12 -10 -9 -5 3 -10 10 -10 16 0 5 5 9 10 9 6 0
10 -7 10 -16z m728 -2 c2 -7 -3 -12 -12 -12 -9 0 -16 7 -16 16 0 17 22 14 28
-4z m-1633 -21 c-9 -16 -25 -3 -18 15 4 10 9 12 15 6 6 -6 7 -15 3 -21z m475
25 c0 -11 -19 -15 -25 -6 -3 5 1 10 9 10 9 0 16 -2 16 -4z m295 -6 c3 -5 1
-10 -4 -10 -6 0 -11 5 -11 10 0 6 2 10 4 10 3 0 8 -4 11 -10z m635 -5 c0 -8
-4 -15 -10 -15 -5 0 -10 7 -10 15 0 8 5 15 10 15 6 0 10 -7 10 -15z m84 6 c3
-5 -1 -11 -9 -15 -9 -3 -15 0 -15 9 0 16 16 20 24 6z m286 -6 c10 -12 10 -15
-4 -15 -9 0 -16 7 -16 15 0 8 2 15 4 15 2 0 9 -7 16 -15z m1610 0 c0 -8 -4
-15 -10 -15 -5 0 -10 7 -10 15 0 8 5 15 10 15 6 0 10 -7 10 -15z m-3287 -10
c-3 -9 -8 -14 -10 -11 -3 3 -2 9 2 15 9 16 15 13 8 -4z m297 5 c0 -5 -7 -10
-16 -10 -8 0 -12 5 -9 10 3 6 10 10 16 10 5 0 9 -4 9 -10z m3047 -12 c-3 -8
-6 -5 -6 6 -1 11 2 17 5 13 3 -3 4 -12 1 -19z m-2177 4 c0 -13 -12 -22 -22
-16 -10 6 -1 24 13 24 5 0 9 -4 9 -8z m591 -5 c-1 -12 -15 -9 -19 4 -3 6 1 10
8 8 6 -3 11 -8 11 -12z m-1576 -25 c-8 -8 -25 10 -19 20 4 6 9 5 15 -3 4 -7 6
-15 4 -17z m853 7 c-2 -6 -8 -10 -13 -10 -5 0 -11 4 -13 10 -2 6 4 11 13 11 9
0 15 -5 13 -11z m1968 -16 c-10 -10 -19 5 -10 18 6 11 8 11 12 0 2 -7 1 -15
-2 -18z m74 17 c0 -5 -5 -10 -11 -10 -5 0 -7 5 -4 10 3 6 8 10 11 10 2 0 4 -4
4 -10z m-2120 -8 c0 -13 -12 -22 -22 -16 -10 6 -1 24 13 24 5 0 9 -4 9 -8z
m1080 -2 c0 -5 -5 -10 -11 -10 -5 0 -7 5 -4 10 3 6 8 10 11 10 2 0 4 -4 4 -10z
m100 -5 c0 -8 -4 -15 -10 -15 -5 0 -10 7 -10 15 0 8 5 15 10 15 6 0 10 -7 10
-15z m150 -6 c0 -5 -4 -9 -10 -9 -5 0 -10 7 -10 16 0 8 5 12 10 9 6 -3 10 -10
10 -16z m230 6 c0 -8 -7 -15 -15 -15 -9 0 -12 6 -9 15 4 8 10 15 15 15 5 0 9
-7 9 -15z m360 -6 c0 -5 -4 -9 -10 -9 -5 0 -10 7 -10 16 0 8 5 12 10 9 6 -3
10 -10 10 -16z m861 -2 c-13 -13 -26 -3 -16 12 3 6 11 8 17 5 6 -4 6 -10 -1
-17z m-3143 -5 c2 -7 -3 -12 -12 -12 -9 0 -16 7 -16 16 0 17 22 14 28 -4z
m1772 8 c0 -5 -4 -10 -10 -10 -5 0 -10 5 -10 10 0 6 5 10 10 10 6 0 10 -4 10
-10z m290 -6 c0 -8 -4 -12 -10 -9 -5 3 -10 10 -10 16 0 5 5 9 10 9 6 0 10 -7
10 -16z m80 7 c0 -6 -4 -13 -10 -16 -5 -3 -10 1 -10 9 0 9 5 16 10 16 6 0 10
-4 10 -9z m-2783 -28 c-3 -3 -11 -2 -17 2 -9 6 -9 10 1 16 14 8 27 -7 16 -18z
m423 17 c0 -5 -4 -10 -10 -10 -5 0 -10 5 -10 10 0 6 5 10 10 10 6 0 10 -4 10
-10z m295 0 c3 -5 -1 -10 -9 -10 -9 0 -16 5 -16 10 0 6 4 10 9 10 6 0 13 -4
16 -10z m140 0 c-3 -5 -10 -10 -16 -10 -5 0 -9 5 -9 10 0 6 7 10 16 10 8 0 12
-4 9 -10z m-505 -20 c0 -5 -4 -10 -9 -10 -6 0 -13 5 -16 10 -3 6 1 10 9 10 9
0 16 -4 16 -10z m3360 1 c0 -6 -4 -13 -10 -16 -5 -3 -10 1 -10 9 0 9 5 16 10
16 6 0 10 -4 10 -9z m-3564 -28 c-10 -10 -19 5 -10 18 6 11 8 11 12 0 2 -7 1
-15 -2 -18z m81 -5 c-3 -8 -6 -5 -6 6 -1 11 2 17 5 13 3 -3 4 -12 1 -19z
m1348 -16 c0 -18 -20 -15 -23 4 -3 10 1 15 10 12 7 -3 13 -10 13 -16z m2225 9
c0 -6 -4 -13 -10 -16 -5 -3 -10 1 -10 9 0 9 5 16 10 16 6 0 10 -4 10 -9z
m-2453 -33 c-16 -10 -21 -2 -13 19 6 15 9 15 16 3 6 -9 5 -17 -3 -22z m83 17
c0 -8 -4 -15 -10 -15 -5 0 -10 7 -10 15 0 8 5 15 10 15 6 0 10 -7 10 -15z
m286 -12 c-10 -10 -19 5 -10 18 6 11 8 11 12 0 2 -7 1 -15 -2 -18z m308 18 c3
-5 -1 -11 -9 -15 -9 -3 -15 0 -15 9 0 16 16 20 24 6z m-227 -27 c-9 -9 -28 6
-21 18 4 6 10 6 17 -1 6 -6 8 -13 4 -17z m1579 -1 c-10 -10 -19 5 -10 18 6 11
8 11 12 0 2 -7 1 -15 -2 -18z m-2166 10 c0 -5 -4 -14 -9 -21 -7 -11 -9 -11
-14 1 -3 8 -3 18 0 21 9 8 23 7 23 -1z m2520 -14 c0 -5 -7 -9 -15 -9 -9 0 -12
6 -9 15 6 15 24 11 24 -6z m-2658 -21 c-15 -15 -26 -4 -18 18 5 13 9 15 18 6
9 -9 9 -15 0 -24z m-77 2 c0 -7 -6 -15 -12 -17 -8 -3 -13 4 -13 17 0 13 5 20
13 18 6 -3 12 -11 12 -18z m1085 10 c0 -5 -4 -10 -10 -10 -5 0 -10 5 -10 10 0
6 5 10 10 10 6 0 10 -4 10 -10z m-1370 -14 c0 -17 -14 -29 -23 -20 -8 8 3 34
14 34 5 0 9 -6 9 -14z m1470 4 c0 -5 -4 -10 -10 -10 -5 0 -10 5 -10 10 0 6 5
10 10 10 6 0 10 -4 10 -10z m740 1 c0 -6 -4 -13 -10 -16 -5 -3 -10 1 -10 9 0
9 5 16 10 16 6 0 10 -4 10 -9z m130 5 c0 -3 -4 -8 -10 -11 -5 -3 -10 -1 -10 4
0 6 5 11 10 11 6 0 10 -2 10 -4z m-2620 -16 c0 -5 -5 -10 -11 -10 -5 0 -7 5
-4 10 3 6 8 10 11 10 2 0 4 -4 4 -10z m200 -5 c0 -8 -4 -15 -10 -15 -5 0 -10
7 -10 15 0 8 5 15 10 15 6 0 10 -7 10 -15z m220 5 c0 -5 -4 -10 -10 -10 -5 0
-10 5 -10 10 0 6 5 10 10 10 6 0 10 -4 10 -10z m1480 0 c0 -5 -4 -10 -10 -10
-5 0 -10 5 -10 10 0 6 5 10 10 10 6 0 10 -4 10 -10z m80 0 c0 -5 -4 -10 -10
-10 -5 0 -10 5 -10 10 0 6 5 10 10 10 6 0 10 -4 10 -10z m145 0 c3 -5 -1 -10
-9 -10 -9 0 -16 5 -16 10 0 6 4 10 9 10 6 0 13 -4 16 -10z m145 -5 c0 -8 -4
-15 -10 -15 -5 0 -10 7 -10 15 0 8 5 15 10 15 6 0 10 -7 10 -15z m75 5 c3 -5
-1 -10 -10 -10 -9 0 -13 5 -10 10 3 6 8 10 10 10 2 0 7 -4 10 -10z m-2825 -71
c0 -5 -4 -9 -10 -9 -5 0 -10 7 -10 16 0 8 5 12 10 9 6 -3 10 -10 10 -16z m67
-1 c-3 -8 -6 -5 -6 6 -1 11 2 17 5 13 3 -3 4 -12 1 -19z m3813 7 c0 -8 -4 -15
-10 -15 -5 0 -10 7 -10 15 0 8 5 15 10 15 6 0 10 -7 10 -15z m-2262 -26 c-17
-10 -28 -2 -21 17 4 11 8 12 20 3 11 -10 11 -14 1 -20z m-138 6 c0 -8 -7 -15
-15 -15 -16 0 -20 12 -8 23 11 12 23 8 23 -8z m-80 -10 c0 -8 -4 -15 -9 -15
-5 0 -11 7 -15 15 -3 9 0 15 9 15 8 0 15 -7 15 -15z m360 -1 c0 -8 -4 -12 -10
-9 -5 3 -10 10 -10 16 0 5 5 9 10 9 6 0 10 -7 10 -16z m67 1 c0 -8 -4 -12 -9
-9 -5 3 -6 10 -3 15 9 13 12 11 12 -6z m1593 -6 c0 -5 -4 -9 -10 -9 -5 0 -10
7 -10 16 0 8 5 12 10 9 6 -3 10 -10 10 -16z m390 6 c0 -8 -4 -15 -9 -15 -13 0
-22 16 -14 24 11 11 23 6 23 -9z m-2556 -10 c-4 -8 -10 -15 -15 -15 -5 0 -9 7
-9 15 0 8 7 15 15 15 9 0 12 -6 9 -15z m-214 -17 c0 -7 -4 -19 -9 -26 -7 -11
-10 -10 -15 3 -3 9 -4 21 0 26 8 13 24 11 24 -3z m78 0 c-6 -18 -28 -21 -28
-4 0 9 7 16 16 16 9 0 14 -5 12 -12z m1022 -4 c0 -8 -4 -12 -10 -9 -5 3 -10
10 -10 16 0 5 5 9 10 9 6 0 10 -7 10 -16z m-1390 -9 c0 -8 -7 -15 -15 -15 -16
0 -20 12 -8 23 11 12 23 8 23 -8z m140 -1 c0 -8 -4 -12 -10 -9 -5 3 -10 10
-10 16 0 5 5 9 10 9 6 0 10 -7 10 -16z m1120 6 c0 -5 -4 -10 -10 -10 -5 0 -10
5 -10 10 0 6 5 10 10 10 6 0 10 -4 10 -10z m230 0 c0 -5 -4 -10 -10 -10 -5 0
-10 5 -10 10 0 6 5 10 10 10 6 0 10 -4 10 -10z m356 -17 c-10 -10 -19 5 -10
18 6 11 8 11 12 0 2 -7 1 -15 -2 -18z m-2106 7 c0 -5 -4 -10 -10 -10 -5 0 -10
5 -10 10 0 6 5 10 10 10 6 0 10 -4 10 -10z m190 -6 c0 -8 -5 -12 -10 -9 -6 4
-8 11 -5 16 9 14 15 11 15 -7z m1700 1 c0 -8 -4 -15 -10 -15 -5 0 -10 7 -10
15 0 8 5 15 10 15 6 0 10 -7 10 -15z m370 6 c0 -6 -4 -13 -10 -16 -5 -3 -10 1
-10 9 0 9 5 16 10 16 6 0 10 -4 10 -9z m70 -7 c0 -8 -4 -12 -10 -9 -5 3 -10
10 -10 16 0 5 5 9 10 9 6 0 10 -7 10 -16z m140 6 c0 -5 -2 -10 -4 -10 -3 0 -8
5 -11 10 -3 6 -1 10 4 10 6 0 11 -4 11 -10z m-1344 -27 c-6 -15 -9 -15 -16 -3
-6 9 -5 17 3 22 16 10 21 2 13 -19z m844 17 c0 -5 -4 -10 -10 -10 -5 0 -10 5
-10 10 0 6 5 10 10 10 6 0 10 -4 10 -10z m-980 -26 c0 -14 -12 -19 -23 -8 -9
9 4 35 14 28 5 -3 9 -12 9 -20z m1855 17 c3 -5 2 -12 -3 -15 -5 -3 -9 1 -9 9
0 17 3 19 12 6z m335 -1 c0 -5 -4 -10 -10 -10 -5 0 -10 5 -10 10 0 6 5 10 10
10 6 0 10 -4 10 -10z m-2270 -15 c0 -8 -4 -15 -10 -15 -5 0 -10 7 -10 15 0 8
5 15 10 15 6 0 10 -7 10 -15z m360 5 c0 -5 -4 -10 -10 -10 -5 0 -10 5 -10 10
0 6 5 10 10 10 6 0 10 -4 10 -10z m70 -5 c0 -8 -4 -15 -10 -15 -5 0 -10 7 -10
15 0 8 5 15 10 15 6 0 10 -7 10 -15z m1576 -12 c-10 -10 -19 5 -10 18 6 11 8
11 12 0 2 -7 1 -15 -2 -18z m-2156 2 c0 -8 -4 -15 -10 -15 -5 0 -10 7 -10 15
0 8 5 15 10 15 6 0 10 -7 10 -15z m-1230 -16 c0 -5 -4 -9 -10 -9 -5 0 -10 7
-10 16 0 8 5 12 10 9 6 -3 10 -10 10 -16z m2120 6 c0 -8 -2 -15 -4 -15 -2 0
-6 7 -10 15 -3 8 -1 15 4 15 6 0 10 -7 10 -15z m-1105 -25 c-5 -8 -11 -8 -17
-2 -6 6 -7 16 -3 22 5 8 11 8 17 2 6 -6 7 -16 3 -22z m83 18 c-6 -18 -28 -21
-28 -4 0 9 7 16 16 16 9 0 14 -5 12 -12z m902 -14 c0 -8 -7 -14 -15 -14 -15 0
-21 21 -9 33 10 9 24 -2 24 -19z m1890 17 c0 -6 -4 -13 -10 -16 -5 -3 -10 1
-10 9 0 9 5 16 10 16 6 0 10 -4 10 -9z m-3416 -16 c3 -8 1 -15 -4 -15 -6 0
-10 7 -10 15 0 8 2 15 4 15 2 0 6 -7 10 -15z m242 -12 c-10 -10 -19 5 -10 18
6 11 8 11 12 0 2 -7 1 -15 -2 -18z m154 11 c0 -9 -5 -14 -12 -12 -18 6 -21 28
-4 28 9 0 16 -7 16 -16z m1350 -5 c0 -11 -4 -17 -10 -14 -5 3 -10 13 -10 21 0
8 5 14 10 14 6 0 10 -9 10 -21z m707 -1 c-3 -8 -6 -5 -6 6 -1 11 2 17 5 13 3
-3 4 -12 1 -19z m-2257 3 c0 -6 -4 -13 -10 -16 -5 -3 -10 1 -10 9 0 9 5 16 10
16 6 0 10 -4 10 -9z m1690 -6 c0 -8 -4 -15 -10 -15 -5 0 -10 7 -10 15 0 8 5
15 10 15 6 0 10 -7 10 -15z m220 5 c0 -5 -4 -10 -10 -10 -5 0 -10 5 -10 10 0
6 5 10 10 10 6 0 10 -4 10 -10z m140 -5 c0 -8 -4 -15 -10 -15 -5 0 -10 7 -10
15 0 8 5 15 10 15 6 0 10 -7 10 -15z m80 11 c0 -3 -4 -8 -10 -11 -5 -3 -10 -1
-10 4 0 6 5 11 10 11 6 0 10 -2 10 -4z m-2395 -26 c3 -5 1 -10 -4 -10 -6 0
-11 5 -11 10 0 6 2 10 4 10 3 0 8 -4 11 -10z m3495 -40 c0 -5 -5 -10 -11 -10
-5 0 -7 5 -4 10 3 6 8 10 11 10 2 0 4 -4 4 -10z m-219 -13 c-1 -12 -15 -9 -19
4 -3 6 1 10 8 8 6 -3 11 -8 11 -12z m-2091 -12 c0 -8 -4 -15 -10 -15 -5 0 -10
7 -10 15 0 8 5 15 10 15 6 0 10 -7 10 -15z m2229 -14 c-15 -5 -22 6 -14 19 6
9 10 9 16 -1 5 -8 4 -15 -2 -18z m-3579 15 c0 -2 -7 -9 -15 -16 -12 -10 -15
-10 -15 4 0 9 7 16 15 16 8 0 15 -2 15 -4z m1131 -29 c-8 -8 -11 -7 -11 4 0
20 13 34 18 19 3 -7 -1 -17 -7 -23z m81 18 c0 -5 -5 -11 -11 -13 -6 -2 -11 4
-11 13 0 9 5 15 11 13 6 -2 11 -8 11 -13z m288 -2 c0 -8 -5 -13 -12 -11 -18 6
-21 25 -3 25 8 0 15 -7 15 -14z m66 -10 c-10 -10 -19 5 -10 18 6 11 8 11 12 0
2 -7 1 -15 -2 -18z m-1806 8 c0 -6 -4 -13 -10 -16 -5 -3 -10 1 -10 9 0 9 5 16
10 16 6 0 10 -4 10 -9z m88 -2 c-2 -6 -8 -10 -13 -10 -5 0 -11 4 -13 10 -2 6
4 11 13 11 9 0 15 -5 13 -11z m1145 -20 c-5 -19 -7 -19 -15 -5 -10 18 -2 39
12 31 4 -3 6 -15 3 -26z m897 6 c0 -8 -4 -15 -10 -15 -5 0 -10 7 -10 15 0 8 5
15 10 15 6 0 10 -7 10 -15z m1160 5 c0 -5 -4 -10 -10 -10 -5 0 -10 5 -10 10 0
6 5 10 10 10 6 0 10 -4 10 -10z m-2200 -15 c0 -8 -7 -15 -15 -15 -9 0 -12 6
-9 15 4 8 10 15 15 15 5 0 9 -7 9 -15z m2460 6 c0 -6 -4 -13 -10 -16 -5 -3
-10 1 -10 9 0 9 5 16 10 16 6 0 10 -4 10 -9z m-3088 -23 c-7 -7 -12 -8 -12 -2
0 14 12 26 19 19 2 -3 -1 -11 -7 -17z m406 4 c6 -18 -15 -14 -22 4 -4 10 -1
14 6 12 6 -2 14 -10 16 -16z m142 3 c0 -8 -4 -15 -10 -15 -5 0 -10 7 -10 15 0
8 5 15 10 15 6 0 10 -7 10 -15z m984 0 c-4 -8 -10 -12 -15 -9 -14 8 -10 24 6
24 9 0 12 -6 9 -15z m236 0 c0 -8 -7 -15 -15 -15 -8 0 -15 7 -15 15 0 8 7 15
15 15 8 0 15 -7 15 -15z m-1573 -17 c-3 -8 -6 -5 -6 6 -1 11 2 17 5 13 3 -3 4
-12 1 -19z m3030 -5 c-3 -3 -11 -2 -17 2 -9 6 -9 10 1 16 14 8 27 -7 16 -18z
m-1247 -4 c0 -6 -4 -7 -10 -4 -5 3 -10 11 -10 16 0 6 5 7 10 4 6 -3 10 -11 10
-16z m-2220 -9 c0 -5 -4 -10 -10 -10 -5 0 -10 5 -10 10 0 6 5 10 10 10 6 0 10
-4 10 -10z m-230 -9 c0 -6 -4 -13 -10 -16 -5 -3 -10 1 -10 9 0 9 5 16 10 16 6
0 10 -4 10 -9z m80 -1 c0 -5 -4 -10 -10 -10 -5 0 -10 5 -10 10 0 6 5 10 10 10
6 0 10 -4 10 -10z m1520 -45 c0 -8 -4 -15 -10 -15 -5 0 -10 7 -10 15 0 8 5 15
10 15 6 0 10 -7 10 -15z m-144 -22 c-10 -10 -19 5 -10 18 6 11 8 11 12 0 2 -7
1 -15 -2 -18z m284 23 c0 -3 -4 -8 -10 -11 -5 -3 -10 -1 -10 4 0 6 5 11 10 11
6 0 10 -2 10 -4z m-504 -43 c-11 -11 -19 6 -11 24 8 17 8 17 12 0 3 -10 2 -21
-1 -24z m154 22 c0 -8 -4 -15 -10 -15 -5 0 -10 7 -10 15 0 8 5 15 10 15 6 0
10 -7 10 -15z m1690 -5 c0 -5 -5 -10 -11 -10 -5 0 -7 5 -4 10 3 6 8 10 11 10
2 0 4 -4 4 -10z m-2380 -10 c0 -5 -4 -10 -10 -10 -5 0 -10 5 -10 10 0 6 5 10
10 10 6 0 10 -4 10 -10z m396 -17 c-10 -10 -19 5 -10 18 6 11 8 11 12 0 2 -7
1 -15 -2 -18z m1624 17 c0 -5 -4 -10 -10 -10 -5 0 -10 5 -10 10 0 6 5 10 10
10 6 0 10 -4 10 -10z m-720 -15 c0 -8 -4 -15 -9 -15 -13 0 -22 16 -14 24 11
11 23 6 23 -9z m230 0 c0 -8 -4 -15 -9 -15 -13 0 -22 16 -14 24 11 11 23 6 23
-9z m710 5 c0 -5 -5 -10 -11 -10 -5 0 -7 5 -4 10 3 6 8 10 11 10 2 0 4 -4 4
-10z m-583 -22 c-3 -8 -6 -5 -6 6 -1 11 2 17 5 13 3 -3 4 -12 1 -19z m83 8 c0
-3 -4 -8 -10 -11 -5 -3 -10 -1 -10 4 0 6 5 11 10 11 6 0 10 -2 10 -4z m-2240
-16 c0 -5 -5 -10 -11 -10 -5 0 -7 5 -4 10 3 6 8 10 11 10 2 0 4 -4 4 -10z
m1400 -21 c0 -5 -4 -9 -10 -9 -5 0 -10 7 -10 16 0 8 5 12 10 9 6 -3 10 -10 10
-16z m140 11 c0 -5 -4 -10 -10 -10 -5 0 -10 5 -10 10 0 6 5 10 10 10 6 0 10
-4 10 -10z m75 0 c3 -5 1 -10 -4 -10 -6 0 -11 5 -11 10 0 6 2 10 4 10 3 0 8
-4 11 -10z m-425 -15 c0 -8 -4 -15 -10 -15 -5 0 -10 7 -10 15 0 8 5 15 10 15
6 0 10 -7 10 -15z m74 -6 c-3 -5 -10 -7 -15 -3 -5 3 -7 10 -3 15 3 5 10 7 15
3 5 -3 7 -10 3 -15z m-216 -1 c-2 -6 -10 -14 -16 -16 -7 -2 -10 2 -6 12 7 18
28 22 22 4z m876 -3 c-4 -8 -8 -15 -10 -15 -2 0 -4 7 -4 15 0 8 4 15 10 15 5
0 7 -7 4 -15z m-124 -16 c0 -5 -7 -9 -15 -9 -15 0 -20 12 -9 23 8 8 24 -1 24
-14z m-985 2 c3 -5 1 -12 -5 -16 -5 -3 -10 1 -10 9 0 18 6 21 15 7z m80 -1 c3
-5 1 -10 -4 -10 -6 0 -11 5 -11 10 0 6 2 10 4 10 3 0 8 -4 11 -10z m1122 -5
c0 -8 -4 -15 -9 -15 -4 0 -8 7 -8 15 0 8 4 15 8 15 5 0 9 -7 9 -15z"/>
<path d="M2230 2150 c0 -5 5 -10 11 -10 5 0 7 5 4 10 -3 6 -8 10 -11 10 -2 0
-4 -4 -4 -10z"/>
<path d="M1695 3991 c3 -2 -1 -11 -8 -19 -10 -13 -9 -14 10 -4 30 16 35 28 13
28 -11 0 -17 -2 -15 -5z"/>
<path d="M2541 3914 c0 -11 3 -14 6 -6 3 7 2 16 -1 19 -3 4 -6 -2 -5 -13z"/>
<path d="M2530 3840 c0 -5 5 -10 10 -10 6 0 10 5 10 10 0 6 -4 10 -10 10 -5 0
-10 -4 -10 -10z"/>
<path d="M1491 3702 c-7 -17 -9 -41 -5 -57 5 -22 4 -26 -6 -20 -10 6 -12 4 -7
-9 4 -10 7 -22 7 -28 0 -6 9 -3 20 7 11 10 17 22 14 26 -3 5 8 12 25 15 17 4
31 10 31 15 0 5 10 9 23 10 12 0 16 3 10 6 -22 8 -14 18 17 20 17 1 38 7 48
12 15 9 14 11 -8 11 -14 0 -34 1 -45 1 -11 1 -30 -2 -42 -6 -17 -6 -23 -3 -23
9 0 29 -46 20 -59 -12z m69 -37 c-7 -8 -18 -15 -24 -15 -6 0 -2 7 8 15 25 19
32 19 16 0z"/>
<path d="M1728 3693 c6 -2 9 -10 6 -15 -4 -7 -2 -8 5 -4 13 9 5 26 -12 25 -9
0 -8 -2 1 -6z"/>
<path d="M1658 3681 c-14 -5 -10 -9 16 -17 28 -9 33 -8 32 5 -3 16 -22 21 -48
12z"/>
<path d="M2378 3672 c7 -2 12 -8 12 -14 0 -6 -6 -8 -12 -6 -7 3 -21 -4 -30
-14 -20 -20 -8 -24 22 -8 15 8 18 7 14 -3 -6 -16 13 -18 69 -10 20 2 35 9 31
14 -3 5 7 9 23 9 l28 1 -29 15 c-16 9 -54 17 -84 18 -31 1 -51 1 -44 -2z m42
-22 c0 -5 -4 -10 -10 -10 -5 0 -10 5 -10 10 0 6 5 10 10 10 6 0 10 -4 10 -10z
m40 -10 c0 -5 -4 -10 -10 -10 -5 0 -10 5 -10 10 0 6 5 10 10 10 6 0 10 -4 10
-10z"/>
<path d="M1765 3651 c-3 -5 -2 -12 3 -15 5 -3 9 1 9 9 0 17 -3 19 -12 6z"/>
<path d="M1728 3643 c7 -3 16 -2 19 1 4 3 -2 6 -13 5 -11 0 -14 -3 -6 -6z"/>
<path d="M1450 3589 c0 -5 5 -7 10 -4 6 3 10 8 10 11 0 2 -4 4 -10 4 -5 0 -10
-5 -10 -11z"/>
<path d="M1722 3560 c-41 -11 -88 -28 -106 -39 -17 -11 -45 -27 -61 -35 -57
-30 7 -18 73 14 35 17 66 30 68 30 2 0 4 -13 4 -28 0 -35 27 -62 62 -62 33 0
58 29 58 68 0 19 5 32 13 32 6 1 -1 7 -18 15 -35 16 -28 20 10 5 14 -5 24 -14
21 -18 -3 -5 11 -24 31 -43 34 -32 37 -24 5 14 -15 16 -14 17 4 11 35 -14 -5
25 -44 42 -41 17 -30 17 -120 -6z m28 -50 c0 -5 -4 -10 -10 -10 -5 0 -10 5
-10 10 0 6 5 10 10 10 6 0 10 -4 10 -10z m50 0 c0 -5 -4 -10 -10 -10 -5 0 -10
5 -10 10 0 6 5 10 10 10 6 0 10 -4 10 -10z"/>
<path d="M2320 3569 c-13 -6 -32 -17 -42 -26 -9 -8 -21 -12 -27 -8 -7 4 -8 0
-4 -11 4 -11 3 -15 -5 -10 -6 3 -14 1 -17 -5 -12 -18 4 -23 22 -7 38 32 46 30
19 -5 -27 -35 -27 -36 -7 -46 11 -6 26 -11 33 -10 7 0 1 5 -13 10 l-27 10 29
31 c15 17 26 35 23 39 -2 4 1 11 7 15 8 5 9 3 4 -6 -5 -9 -2 -10 14 -5 18 5
21 2 21 -24 0 -34 30 -71 58 -71 29 0 62 29 62 56 0 30 4 30 60 -2 74 -42 158
-36 110 9 -10 10 -11 9 -5 -1 5 -10 0 -13 -21 -10 -16 2 -30 9 -30 16 -1 6 -2
16 -3 22 -2 16 -73 28 -164 26 -77 -1 -85 1 -60 11 21 9 23 12 8 12 -11 0 -31
-5 -45 -10z m220 -34 c17 -9 30 -18 30 -21 0 -2 -12 2 -27 9 -16 8 -35 17 -43
20 -10 4 -11 6 -2 6 7 1 26 -6 42 -14z m-150 -25 c0 -5 -4 -10 -10 -10 -5 0
-10 5 -10 10 0 6 5 10 10 10 6 0 10 -4 10 -10z m50 0 c0 -5 -4 -10 -10 -10 -5
0 -10 5 -10 10 0 6 5 10 10 10 6 0 10 -4 10 -10z"/>
<path d="M1615 3550 c-25 -9 -52 -40 -37 -40 6 0 14 5 17 10 4 6 21 17 38 24
34 15 17 21 -18 6z"/>
<path d="M2526 3471 c-4 -5 0 -11 6 -14 10 -3 10 -7 -1 -20 -18 -22 4 -23 26
-2 12 12 13 19 3 30 -14 17 -26 19 -34 6z"/>
<path d="M1600 3466 c0 -2 8 -10 18 -17 15 -13 16 -12 3 4 -13 16 -21 21 -21
13z"/>
<path d="M1890 3450 c-9 -6 -10 -10 -3 -10 6 0 15 5 18 10 8 12 4 12 -15 0z"/>
<path d="M1845 3410 c-3 -6 1 -7 9 -4 18 7 21 14 7 14 -6 0 -13 -4 -16 -10z"/>
<path d="M2159 3033 c-13 -15 -12 -15 7 -5 11 6 31 8 44 5 16 -4 21 -3 16 5
-11 18 -52 14 -67 -5z"/>
<path d="M1936 3032 c-2 -4 13 -8 35 -8 21 -1 36 2 33 7 -6 11 -61 12 -68 1z"/>
<path d="M1357 3014 c-3 -4 -21 -10 -39 -14 -27 -7 -29 -8 -8 -9 14 0 36 6 50
14 14 8 20 14 14 15 -6 0 -13 -3 -17 -6z"/>
<path d="M1411 3009 c-1 -9 6 -32 14 -50 18 -43 18 -16 0 31 -7 19 -14 28 -14
19z"/>
<path d="M2185 3010 c-3 -5 1 -10 9 -10 8 0 18 5 21 10 3 6 -1 10 -9 10 -8 0
-18 -4 -21 -10z"/>
<path d="M2774 3009 c-3 -5 21 -9 52 -9 32 0 55 2 53 4 -10 8 -100 13 -105 5z"/>
<path d="M2355 2850 c10 -11 22 -20 27 -20 5 0 4 9 -2 20 -6 11 -18 20 -27 20
-14 0 -14 -2 2 -20z"/>
<path d="M2185 2811 c-24 -12 -65 -16 -207 -15 -98 0 -178 -4 -178 -8 0 -4 16
-15 36 -23 42 -17 44 -18 43 -7 -3 18 3 21 25 12 13 -5 27 -6 30 -3 9 9 326
10 326 0 0 -12 45 -1 74 18 33 22 33 32 -1 32 -16 1 -48 3 -73 5 -30 3 -55 0
-75 -11z"/>
<path d="M2065 2650 l-40 -7 35 -1 c19 0 46 4 60 8 32 10 2 10 -55 0z"/>
</g>
</svg>
